<?xml version="1.0" encoding="UTF-8"?>
<svg version="1.1" xmlns="http://www.w3.org/2000/svg" width="252" height="252">
<path d="M0 0 C8.13918332 7.19867806 15.87388445 17.35045427 16.6171875 28.5 C16.4265024 31.90849621 15.88182026 33.11919994 14.1171875 36.25 C6.70996405 42.44788085 -4.58552717 41.48474373 -13.82470703 41.01220703 C-21.37117268 40.30152215 -27.03561131 37.56386425 -31.9453125 31.8125 C-39.34799484 25.03983318 -45.54562965 24.34002249 -55.359375 24.50390625 C-60.19499498 24.92004348 -62.35060142 25.55218064 -65.9453125 28.8125 C-67.84948638 32.76732266 -68.23341204 34.76299453 -67.0703125 39 C-62.44185077 45.12590523 -54.39287758 46.76805086 -47.2578125 48.6875 C-46.35297119 48.93943115 -45.44812988 49.1913623 -44.51586914 49.45092773 C-41.66103693 50.24564797 -38.80356943 51.0301942 -35.9453125 51.8125 C-4.4070682 60.45692033 -4.4070682 60.45692033 5.0546875 68.8125 C5.74433594 69.40933594 6.43398437 70.00617188 7.14453125 70.62109375 C15.64523131 78.48859455 19.46719108 87.84966397 20.30859375 99.25390625 C20.79614177 114.58807789 16.56440884 125.61136381 6.1796875 136.83984375 C-8.02106516 150.36014367 -29.61403543 154.10262122 -48.58837891 153.91503906 C-65.04028119 153.1992944 -79.96438826 149.62114507 -94.03515625 141.0078125 C-96.83875379 139.52164917 -96.83875379 139.52164917 -99.48046875 140.4375 C-100.29386719 140.89125 -101.10726562 141.345 -101.9453125 141.8125 C-102.821875 142.26367188 -103.6984375 142.71484375 -104.6015625 143.1796875 C-105.54 143.67726562 -106.4784375 144.17484375 -107.4453125 144.6875 C-129.2308009 155.5802442 -154.12234783 156.35785867 -177.16088867 148.97509766 C-196.37545071 142.35588479 -210.51986212 128.47281756 -219.9453125 110.8125 C-230.22257475 88.02725191 -230.74036222 61.93180683 -222.421875 38.484375 C-214.57566892 18.9726456 -201.56599696 4.54191451 -182.36132812 -4.03442383 C-162.77210952 -12.30537014 -137.00790097 -13.94682628 -116.9453125 -6.1875 C-113.1117007 -4.44614009 -109.44417603 -2.49282073 -105.80078125 -0.3828125 C-103.12052757 1.08585522 -103.12052757 1.08585522 -100.9296875 0.25 C-100.27484375 -0.224375 -99.62 -0.69875 -98.9453125 -1.1875 C-98.02878906 -1.78304687 -97.11226562 -2.37859375 -96.16796875 -2.9921875 C-94.60369141 -4.01699219 -94.60369141 -4.01699219 -93.0078125 -5.0625 C-86.63058767 -9.08231449 -80.30512893 -11.45040047 -72.9453125 -13.1875 C-72.06230469 -13.41179688 -71.17929688 -13.63609375 -70.26953125 -13.8671875 C-46.52410276 -18.88431132 -18.98809882 -15.76674913 0 0 Z M-172.9453125 35.8125 C-173.56277344 36.32683594 -174.18023437 36.84117188 -174.81640625 37.37109375 C-182.31840774 44.09869508 -186.21329583 54.17930522 -187.16625977 64.11645508 C-187.90428484 79.48962707 -186.33558218 92.73435951 -175.9453125 104.8125 C-167.80243658 113.34225464 -158.62424137 116.20448635 -146.9453125 116.8125 C-136.60278274 116.2229021 -129.50787847 113.32869075 -122.0078125 106.3125 C-112.49447818 97.44116984 -102.59451741 96.43036345 -89.8828125 96.53125 C-82.6868732 97.04524566 -75.71073348 98.5280218 -70.0703125 103.1875 C-69.3690625 104.05375 -68.6678125 104.92 -67.9453125 105.8125 C-61.4384871 112.2704019 -55.77659431 114.90189119 -46.5703125 115.3125 C-40.25945142 115.16556493 -34.99386761 113.70388122 -29.9453125 109.8125 C-27.810796 106.40664138 -27.45432946 103.82219483 -27.9453125 99.8125 C-31.89345263 92.90325477 -39.7238313 90.67251385 -46.99731445 88.63330078 C-48.27094849 88.28887939 -48.27094849 88.28887939 -49.5703125 87.9375 C-50.47547607 87.68339355 -51.38063965 87.42928711 -52.31323242 87.16748047 C-57.07497284 85.838337 -61.8489608 84.57616129 -66.64453125 83.375 C-82.60670158 79.32640311 -99.84234712 74.38974093 -109.6953125 60.125 C-111.62550043 56.84241067 -112.64792315 53.58933519 -113.6953125 49.9375 C-116.3706329 41.43879143 -121.91565035 35.30061815 -129.5703125 30.8125 C-143.97309145 23.80908687 -160.88244769 24.97897173 -172.9453125 35.8125 Z " fill="#5B6AFC" transform="translate(230.9453125,58.1875)"/>
<path d="M0 0 C3.0436641 2.71682769 5.45537497 5.34721842 7.91015625 8.59765625 C7.91015625 9.25765625 7.91015625 9.91765625 7.91015625 10.59765625 C6.59015625 10.59765625 5.27015625 10.59765625 3.91015625 10.59765625 C3.54857422 9.23640625 3.54857422 9.23640625 3.1796875 7.84765625 C-0.04054815 -0.396147 -9.64219773 -4.49933232 -17.23046875 -8.078125 C-27.8062032 -12.07848517 -38.76288565 -12.93150926 -49.96484375 -12.83984375 C-51.93710937 -12.82739624 -51.93710937 -12.82739624 -53.94921875 -12.81469727 C-71.62421966 -12.5073535 -87.54571224 -8.25854295 -101.08984375 3.59765625 C-104.47013321 2.28644076 -107.70934495 0.81490956 -110.96484375 -0.77734375 C-131.43681408 -10.14070772 -155.87352694 -11.49125472 -177.08984375 -3.83984375 C-192.18196164 1.98731999 -205.49552625 11.70415195 -214.08984375 25.59765625 C-214.85924056 27.8236824 -214.85924056 27.8236824 -215.08984375 29.59765625 C-215.74984375 29.59765625 -216.40984375 29.59765625 -217.08984375 29.59765625 C-217.08984375 30.58765625 -217.08984375 31.57765625 -217.08984375 32.59765625 C-217.74984375 32.59765625 -218.40984375 32.59765625 -219.08984375 32.59765625 C-217.6068751 26.33623307 -213.88725746 21.65286311 -210.08984375 16.59765625 C-209.48527344 15.78167969 -208.88070312 14.96570313 -208.2578125 14.125 C-196.11613838 -0.02934803 -178.18682147 -7.67054215 -160.08984375 -10.40234375 C-140.42594071 -11.64624303 -123.13707212 -10.55396253 -105.9453125 -0.59765625 C-103.26505882 0.87101147 -103.26505882 0.87101147 -101.07421875 0.03515625 C-100.419375 -0.43921875 -99.76453125 -0.91359375 -99.08984375 -1.40234375 C-98.17332031 -1.99789062 -97.25679688 -2.5934375 -96.3125 -3.20703125 C-95.26964844 -3.89023437 -94.22679687 -4.5734375 -93.15234375 -5.27734375 C-86.77511892 -9.29715824 -80.44966018 -11.66524422 -73.08984375 -13.40234375 C-72.20683594 -13.62664063 -71.32382813 -13.8509375 -70.4140625 -14.08203125 C-46.10384106 -19.21848904 -19.54380163 -15.63442175 0 0 Z " fill="#D1D4EB" transform="translate(231.08984375,58.40234375)"/>
<path d="M0 0 C0.99 0.33 1.98 0.66 3 1 C3.81640625 2.78515625 3.81640625 2.78515625 4.5625 5.0625 C8.49058194 14.45703818 18.13550863 19.04329651 27 23 C30.50186919 24.32852121 34.04421669 25.46679181 37.625 26.5625 C38.58067871 26.8613208 39.53635742 27.1601416 40.52099609 27.46801758 C46.18410627 29.21397729 51.86478119 30.79722453 57.625 32.1875 C67.41567147 34.55249331 76.01269116 36.71211857 84 43 C85.485 43.495 85.485 43.495 87 44 C87.22730082 48.50590457 87.15930478 52.6227147 86 57 C80.7647572 62.26374685 74.05006341 64.12467423 66.8125 64.25 C56.87656405 64.10466051 50.98913815 60.9510502 44 54 C44.495 53.01 44.495 53.01 45 52 C45.4125 52.39832031 45.825 52.79664063 46.25 53.20703125 C53.57435844 59.92647616 59.8515338 61.5983201 69.796875 61.35546875 C74.29183889 60.85663739 78.33420045 59.71789258 82 57 C84.11379951 53.58382724 84.57280372 51.00962607 84 47 C77.57979874 37.59899101 62.40861139 35.57351821 52.125 33 C11.78427714 22.84256108 11.78427714 22.84256108 0.8125 4.796875 C0 3 0 3 0 0 Z " fill="#C6CAE6" transform="translate(118,111)"/>
<path d="M0 0 C0.99 1.485 0.99 1.485 2 3 C5.77394146 7.43870913 9.47177173 9.28556054 14.9375 10.9375 C16.10526978 11.3097168 16.10526978 11.3097168 17.29663086 11.68945312 C23.50456847 13.63291393 29.77886044 15.32140346 36.0625 17 C53.75102305 21.73100978 69.89810267 26.2883912 82 41 C83.25390625 43.77734375 83.25390625 43.77734375 84 46 C82.1875 45.875 82.1875 45.875 80 45 C79.4121875 43.7315625 79.4121875 43.7315625 78.8125 42.4375 C72.31325741 30.11135027 58.4527785 26.27122513 46.05004883 22.375 C37.76352031 19.84835407 29.38346495 17.65380712 20.98413086 15.53564453 C4.3331328 11.221888 4.3331328 11.221888 0 4 C0 2.68 0 1.36 0 0 Z " fill="#D4D6EE" transform="translate(162,94)"/>
<path d="M0 0 C1.02971924 0.00491455 2.05943848 0.0098291 3.12036133 0.01489258 C22.54198115 0.30996199 38.65259249 5.28259934 53.25 18.3125 C58.25 23.62735733 58.25 23.62735733 58.25 26.3125 C56.93 26.3125 55.61 26.3125 54.25 26.3125 C53.88841797 24.95125 53.88841797 24.95125 53.51953125 23.5625 C50.2992956 15.31869675 40.69764602 11.21551143 33.109375 7.63671875 C22.22074495 3.52119625 10.89349412 2.82281516 -0.625 2.625 C-2.00654009 2.59170401 -3.3880517 2.55720386 -4.76953125 2.52148438 C-8.09627195 2.44006065 -11.422784 2.37057388 -14.75 2.3125 C-9.97595009 -0.44900066 -5.38734824 -0.0299273 0 0 Z " fill="#C0C3E4" transform="translate(180.75,42.6875)"/>
<path d="M0 0 C1.69124 4.06050249 0.04871295 7.19135252 -1.38671875 11.0625 C-4.55465645 20.36090479 -4.77996246 29.25845623 -4.8125 39 C-4.83572059 40.66149008 -4.86110112 42.32295141 -4.88867188 43.984375 C-4.95056007 47.98969133 -4.98365131 51.99424971 -5 56 C-5.66 55.67 -6.32 55.34 -7 55 C-10.61534305 37.28481908 -8.07812893 16.15625785 0 0 Z " fill="#939AEC" transform="translate(11,91)"/>
<path d="M0 0 C0.99 0 1.98 0 3 0 C2.03795687 2.93813172 1.05958684 5.84820578 -0.0703125 8.7265625 C-5.3103838 23.12705473 -4.31244989 37.81765609 1 52 C1 52.66 1 53.32 1 54 C0.34 54 -0.32 54 -1 54 C-4.91930115 45.27064743 -6.32458741 38.2657669 -6.25 28.6875 C-6.25773437 27.70587891 -6.26546875 26.72425781 -6.2734375 25.71289062 C-6.25633578 19.25271741 -5.51513933 13.27885473 -4 7 C-3.34 7 -2.68 7 -2 7 C-2 6.34 -2 5.68 -2 5 C-1.34 5 -0.68 5 0 5 C0 3.35 0 1.7 0 0 Z " fill="#8F97EC" transform="translate(48,101)"/>
<path d="M0 0 C0.99 0 1.98 0 3 0 C3.22730082 4.50590457 3.15930478 8.6227147 2 13 C-3.2352428 18.26374685 -9.94993659 20.12467423 -17.1875 20.25 C-27.12343595 20.10466051 -33.01086185 16.9510502 -40 10 C-39.67 9.34 -39.34 8.68 -39 8 C-38.5875 8.39832031 -38.175 8.79664063 -37.75 9.20703125 C-30.42564156 15.92647616 -24.1484662 17.5983201 -14.203125 17.35546875 C-9.70816111 16.85663739 -5.66579955 15.71789258 -2 13 C-0.03205298 10.0512032 0.22796648 7.75086046 0.125 4.25 C0.10695312 3.45078125 0.08890625 2.6515625 0.0703125 1.828125 C0.04710937 1.22484375 0.02390625 0.6215625 0 0 Z " fill="#CBCEEB" transform="translate(202,155)"/>
<path d="M0 0 C3.90720948 1.86545081 7.04738636 3.77665724 9.99609375 6.96875 C9.66609375 7.62875 9.33609375 8.28875 8.99609375 8.96875 C7.62890625 7.73177083 6.26171875 6.49479167 4.89453125 5.2578125 C-1.8399288 0.68503099 -10.23045458 1.28285721 -18.00390625 1.96875 C-21.18338719 2.9024071 -22.42665036 3.75111121 -25.00390625 5.96875 C-26.49503979 8.5595795 -26.49503979 8.5595795 -27.00390625 10.96875 C-29.00390625 7.21875 -29.00390625 7.21875 -29.00390625 4.96875 C-19.71558237 -0.74714162 -10.71459281 -3.67835176 0 0 Z " fill="#C0C3EA" transform="translate(190.00390625,81.03125)"/>
<path d="M0 0 C5.68279858 8.52419787 5.83535774 19.08280424 5 29 C4.26119767 32.45623617 3.29871518 35.7145598 2 39 C1.67 39 1.34 39 1 39 C1.24169922 37.09541016 1.24169922 37.09541016 1.48828125 35.15234375 C2.0642929 29.94784914 2.18362117 24.79504225 2.1875 19.5625 C2.19974609 18.66595703 2.21199219 17.76941406 2.22460938 16.84570312 C2.22654297 15.99041016 2.22847656 15.13511719 2.23046875 14.25390625 C2.23457764 13.48377197 2.23868652 12.7136377 2.24291992 11.92016602 C2.1689317 9.76042058 2.1689317 9.76042058 0 8 C-0.26991906 5.31160615 -0.08737357 2.70858064 0 0 Z " fill="#AAAFED" transform="translate(246,140)"/>
<path d="M0 0 C0.99 0.33 1.98 0.66 3 1 C3.81640625 2.78515625 3.81640625 2.78515625 4.5625 5.0625 C8.18892244 13.73557876 16.61226989 18.15538486 24.79296875 21.96875 C27.30776975 23.14380746 29.65597017 24.51544777 32 26 C31.34 26.33 30.68 26.66 30 27 C17.93554065 22.1044795 5.5118893 15.49176922 0 3 C0 2.01 0 1.02 0 0 Z " fill="#D2D5ED" transform="translate(118,111)"/>
<path d="M0 0 C12.31411603 1.60065319 23.27871286 9.4379156 31.3125 18.65234375 C33 21 33 21 33 23 C31.68 23 30.36 23 29 23 C28.75507813 22.09121094 28.51015625 21.18242188 28.2578125 20.24609375 C25.65027561 13.51670508 19.17255637 9.90740365 12.81640625 7.00390625 C10.64695358 6.05322818 8.47007358 5.13803457 6.27099609 4.25805664 C1.08908483 2.17816966 1.08908483 2.17816966 0 0 Z " fill="#CFD1EF" transform="translate(206,46)"/>
<path d="M0 0 C0.88429687 -0.00773438 1.76859375 -0.01546875 2.6796875 -0.0234375 C3.53304687 -0.02085937 4.38640625 -0.01828125 5.265625 -0.015625 C6.03165039 -0.01336914 6.79767578 -0.01111328 7.58691406 -0.00878906 C10.00695911 0.28074229 11.64672316 1.0472744 13.75 2.25 C12.91227051 2.27505615 12.07454102 2.3001123 11.21142578 2.32592773 C8.10647744 2.42100357 5.00169819 2.52024025 1.89697266 2.62231445 C-0.10894807 2.68698251 -2.11502228 2.74683106 -4.12109375 2.80664062 C-6.00634766 2.86948242 -6.00634766 2.86948242 -7.9296875 2.93359375 C-9.09226074 2.97025146 -10.25483398 3.00690918 -11.45263672 3.04467773 C-14.2035501 3.06821659 -14.2035501 3.06821659 -16.25 4.25 C-16.91 3.59 -17.57 2.93 -18.25 2.25 C-12.0408053 0.43056155 -6.45351557 -0.05744969 0 0 Z " fill="#616DE9" transform="translate(137.25,155.75)"/>
<path d="M0 0 C4.79374647 3.93772031 7.54044879 9.39084169 8.3203125 15.515625 C8.3708478 17.75361667 8.40054529 19.79700092 8 22 C7.34 22.66 6.68 23.32 6 24 C5.875 17.25 5.875 17.25 7 15 C6.34 15 5.68 15 5 15 C4.80664062 14.33613281 4.61328125 13.67226562 4.4140625 12.98828125 C2.47248648 6.40210691 2.47248648 6.40210691 0 0 Z " fill="#B2B5F0" transform="translate(239,69)"/>
<path d="M0 0 C1.41534496 4.46282734 0.10036363 7.87998893 -1.3125 12.1875 C-1.53873047 12.92419922 -1.76496094 13.66089844 -1.99804688 14.41992188 C-2.5989974 16.30243835 -3.29313368 18.15464101 -4 20 C-4.66 20.33 -5.32 20.66 -6 21 C-5.55355616 13.41045469 -2.88499438 6.98360263 0 0 Z " fill="#A3ABEB" transform="translate(11,91)"/>
<path d="M0 0 C0.66 0.33 1.32 0.66 2 1 C0.71034824 2.37562854 -0.62689293 3.70766393 -2 5 C-2.66 5 -3.32 5 -4 5 C-4 5.66 -4 6.32 -4 7 C-6.88229224 8.92152816 -9.90127153 10.46387819 -13 12 C-9.12207712 7.07091854 -5.23883167 3.4576289 0 0 Z " fill="#616AEC" transform="translate(39,61)"/>
<path d="M0 0 C3 1 3 1 4.0625 2.9609375 C4.371875 3.75757812 4.68125 4.55421875 5 5.375 C6.25772534 8.59268066 7.39280672 10.70389228 10 13 C9.67 13.66 9.34 14.32 9 15 C7.86966702 13.75482035 6.74594964 12.50363348 5.625 11.25 C4.99851562 10.55390625 4.37203125 9.8578125 3.7265625 9.140625 C1.21073527 6.02145458 0 4.04406365 0 0 Z " fill="#CDD1F6" transform="translate(118,111)"/>
<path d="M0 0 C0.99 0 1.98 0 3 0 C2.38531118 3.99547736 0.34540624 6.77506642 -2 10 C-2.33 10 -2.66 10 -3 10 C-3 7.69 -3 5.38 -3 3 C-2.01 3.33 -1.02 3.66 0 4 C0 2.68 0 1.36 0 0 Z " fill="#9DA3EF" transform="translate(244,179)"/>
<path d="M0 0 C3.44428265 1.44781793 5.36130962 3.27694609 7.75 6.125 C8.36359375 6.84945312 8.9771875 7.57390625 9.609375 8.3203125 C10.29773438 9.15175781 10.29773438 9.15175781 11 10 C10.67 10.66 10.34 11.32 10 12 C7 11 7 11 5.5625 8.25 C5.046875 7.1775 4.53125 6.105 4 5 C2.70758949 3.30140333 1.38509525 1.62390477 0 0 Z " fill="#BCC1ED" transform="translate(235,128)"/>
<path d="M0 0 C0.99 0 1.98 0 3 0 C2.67 4.29 2.34 8.58 2 13 C1.01 13.33 0.02 13.66 -1 14 C-0.9278125 13.24074219 -0.855625 12.48148438 -0.78125 11.69921875 C-0.6884375 10.70535156 -0.595625 9.71148437 -0.5 8.6875 C-0.4071875 7.70136719 -0.314375 6.71523437 -0.21875 5.69921875 C0.04038857 2.95297861 0.04038857 2.95297861 0 0 Z " fill="#A4AAF4" transform="translate(202,155)"/>
<path d="M0 0 C0.33 0 0.66 0 1 0 C1.6700834 2.12392506 2.33596797 4.24917524 3 6.375 C3.37125 7.55835938 3.7425 8.74171875 4.125 9.9609375 C5 13 5 13 5 15 C4.34 15 3.68 15 3 15 C0.31780178 9.63560356 -0.3152595 5.98993047 0 0 Z " fill="#AEB2F0" transform="translate(44,140)"/>
<path d="M0 0 C0.99 0 1.98 0 3 0 C1.46527032 4.72224516 -0.23945126 9.35855331 -2 14 C-2.97591583 10.61682513 -2.85856655 8.4342662 -2 5 C-1.34 5 -0.68 5 0 5 C0 3.35 0 1.7 0 0 Z " fill="#BBC0F3" transform="translate(48,101)"/>
<path d="M0 0 C0.33 0.99 0.66 1.98 1 3 C0.34 3.66 -0.32 4.32 -1 5 C-1.64767793 7.57061311 -1.64767793 7.57061311 -2 10 C-2.99 10 -3.98 10 -5 10 C-4.38545304 6.00544473 -2.29353263 3.25533664 0 0 Z " fill="#616DEC" transform="translate(21,77)"/>
<path d="M0 0 C0.99928333 2.698065 1.03624754 3.88010429 0.1875 6.6875 C-1 9 -1 9 -3 10 C-2.49287967 6.28111761 -1.88391785 3.26545761 0 0 Z " fill="#B1B5EF" transform="translate(11,91)"/>
<path d="M0 0 C2.97 0.495 2.97 0.495 6 1 C4.35 2.65 2.7 4.3 1 6 C0.67 4.02 0.34 2.04 0 0 Z " fill="#616DF1" transform="translate(232,190)"/>
</svg>
